<?xml version="1.0" encoding="UTF-8" standalone="no"?>
<!-- Created with Inkscape (http://www.inkscape.org/) -->

<svg
   xmlns:dc="http://purl.org/dc/elements/1.1/"
   xmlns:cc="http://creativecommons.org/ns#"
   xmlns:rdf="http://www.w3.org/1999/02/22-rdf-syntax-ns#"
   xmlns:svg="http://www.w3.org/2000/svg"
   xmlns="http://www.w3.org/2000/svg"
   xmlns:sodipodi="http://sodipodi.sourceforge.net/DTD/sodipodi-0.dtd"
   xmlns:inkscape="http://www.inkscape.org/namespaces/inkscape"
   width="203.23801"
   height="83.259003"
   id="svg3251"
   version="1.1"
   inkscape:version="0.48.4 r9939"
   sodipodi:docname="New document 2">
  <defs
     id="defs3253" />
  <sodipodi:namedview
     id="base"
     pagecolor="#ffffff"
     bordercolor="#666666"
     borderopacity="1.0"
     inkscape:pageopacity="0.0"
     inkscape:pageshadow="2"
     inkscape:zoom="3.1355907"
     inkscape:cx="101.619"
     inkscape:cy="41.6295"
     inkscape:document-units="px"
     inkscape:current-layer="layer1"
     showgrid="false"
     fit-margin-top="1"
     fit-margin-left="1"
     fit-margin-right="1"
     fit-margin-bottom="1"
     inkscape:window-width="796"
     inkscape:window-height="523"
     inkscape:window-x="503"
     inkscape:window-y="112"
     inkscape:window-maximized="0" />
  <metadata
     id="metadata3256">
    <rdf:RDF>
      <cc:Work
         rdf:about="">
        <dc:format>image/svg+xml</dc:format>
        <dc:type
           rdf:resource="http://purl.org/dc/dcmitype/StillImage" />
        <dc:title></dc:title>
      </cc:Work>
    </rdf:RDF>
  </metadata>
  <g
     inkscape:label="Layer 1"
     inkscape:groupmode="layer"
     id="layer1"
     transform="translate(-4.09528,-5.0184)">
    <g
       transform="translate(-504.48672,-116.2316)"
       id="g207">
      <g
         id="g209">
        <path
           style="fill:#4a4a4a"
           inkscape:connector-curvature="0"
           id="path211"
           d="m 589.764,172.766 v -14.838 c 0,-3.325 2.693,-6.016 6.021,-6.016 h 12.141 v 2.586 c 0,0.245 -0.211,0.461 -0.492,0.461 h -11.648 c -1.492,0 -2.691,1.2 -2.691,2.691 v 15.398 c 0,1.486 1.199,2.69 2.691,2.69 h 7.33 c 1.484,0 3.004,-1.204 3.004,-2.69 v -6.409 h -6.438 c -0.252,0 -0.461,-0.21 -0.461,-0.459 v -2.586 h 9.449 c 0.248,0 0.461,0.21 0.461,0.458 v 9.064 c 0,3.757 -2.688,5.664 -6.016,5.664 h -7.33 c -3.328,0 -6.021,-2.689 -6.021,-6.014 z" />
        <path
           style="fill:#4a4a4a"
           inkscape:connector-curvature="0"
           id="path213"
           d="m 618.781,165.896 v 12.285 c 0,0.249 -0.209,0.458 -0.457,0.458 h -2.867 v -24.534 c 0,-1.132 0.922,-2.054 2.053,-2.054 h 11.113 c 3.33,0 6.021,2.09 6.021,5.7 v 3.436 c 0,3.113 -2.23,4.816 -4.816,5.488 l 5.662,11.964 h -3.076 c -0.248,0 -0.533,-0.21 -0.637,-0.422 l -5.385,-11.366 h -4.531 -1.023 c -0.996,0 -1.734,-0.285 -1.98,-0.956 h -0.077 z m 9.842,-2.092 c 1.488,0 2.695,-1.198 2.695,-2.688 v -3.326 c 0,-1.487 -1.207,-2.691 -2.695,-2.691 h -9.168 c -0.389,0 -0.674,0.321 -0.674,0.673 v 7.36 c 0,0.393 0.322,0.671 0.674,0.671 h 9.168 z" />
        <path
           style="fill:#4a4a4a"
           inkscape:connector-curvature="0"
           id="path215"
           d="m 664.152,178.64 h -2.904 c -0.32,0 -0.57,-0.21 -0.635,-0.458 l -2.377,-6.834 h -13.52 l -2.377,6.834 c -0.066,0.249 -0.35,0.458 -0.635,0.458 H 638.8 l 8.641,-24.602 c 0.424,-1.168 1.52,-1.986 2.793,-1.986 h 4.217 c 0.176,0 0.352,0.108 0.424,0.249 l 9.277,26.339 z m -6.976,-10.334 -4.602,-13.207 h -1.736 c -0.283,0 -0.531,0.176 -0.635,0.461 l -4.428,12.746 h 11.401 z" />
        <path
           style="fill:#4a4a4a"
           inkscape:connector-curvature="0"
           id="path217"
           d="m 687.047,152.052 v 2.586 c 0,0.249 -0.213,0.461 -0.461,0.461 h -11.471 c -1.488,0 -2.688,1.204 -2.688,2.691 v 6.797 c 0.352,-0.463 1.023,-0.783 1.771,-0.783 h 12.033 v 2.586 c 0,0.249 -0.211,0.461 -0.457,0.461 h -13.348 v 11.33 c 0,0.249 -0.211,0.458 -0.461,0.458 h -2.869 v -20.565 c 0,-3.332 2.693,-6.022 6.018,-6.022 h 11.933 z" />
        <path
           style="fill:#4a4a4a"
           inkscape:connector-curvature="0"
           id="path219"
           d="m 710.82,152.052 v 2.586 c 0,0.249 -0.213,0.461 -0.459,0.461 h -7.576 v 23.082 c 0,0.249 -0.176,0.458 -0.455,0.458 h -2.871 v -23.541 h -7.934 v -2.586 c 0,-0.249 0.215,-0.461 0.461,-0.461 h 18.834 z" />
      </g>
      <g
         id="g221">
        <path
           style="fill:#46e0b4"
           inkscape:connector-curvature="0"
           id="path223"
           d="m 542.021,138.537 17.434,10.065 14.105,-8.144 -31.539,-18.208 0,0 -32.063,18.512 14.105,8.144 17.958,-10.369 m 0,-16.287 -32.063,18.512 14.105,8.144 17.957,-10.368" />
        <polygon
           style="fill:#0d2a35"
           id="polygon225"
           points="532.223,164.229 546.328,172.373 573.711,156.781 559.453,148.607 " />
        <path
           style="fill:#0d2a35"
           inkscape:connector-curvature="0"
           id="path227"
           d="m 509.59,184.997 32.064,18.512 32.064,-18.512 -14.107,-8.143 -17.957,10.368 -17.959,-10.368 -14.105,8.143 z" />
        <polygon
           style="fill:#46e0b4"
           id="polygon229"
           points="509.582,153.14 509.582,184.997 523.686,176.854 523.686,161.284 " />
        <polygon
           style="fill:#46e0b4"
           id="polygon231"
           points="559.605,164.932 559.605,176.854 573.711,184.997 573.711,156.789 " />
      </g>
    </g>
  </g>
</svg>
